<svg width="16" height="19" viewBox="0 0 16 19" fill="none" xmlns="http://www.w3.org/2000/svg">
<path d="M11.2 10.2C10.175 10.2 9.68214 10.7667 8 10.7667C6.31786 10.7667 5.82857 10.2 4.8 10.2C2.15 10.2 0 12.3321 0 14.96V16.4333C0 17.3719 0.767857 18.1333 1.71429 18.1333H14.2857C15.2321 18.1333 16 17.3719 16 16.4333V14.96C16 12.3321 13.85 10.2 11.2 10.2ZM14.8571 16.4333C14.8571 16.745 14.6 17 14.2857 17H1.71429C1.4 17 1.14286 16.745 1.14286 16.4333V14.96C1.14286 12.959 2.78214 11.3333 4.8 11.3333C5.5 11.3333 6.19643 11.9 8 11.9C9.8 11.9 10.5 11.3333 11.2 11.3333C13.2179 11.3333 14.8571 12.959 14.8571 14.96V16.4333ZM8 9.06667C10.525 9.06667 12.5714 7.03729 12.5714 4.53333C12.5714 2.02938 10.525 0 8 0C5.475 0 3.42857 2.02938 3.42857 4.53333C3.42857 7.03729 5.475 9.06667 8 9.06667ZM8 1.13333C9.88929 1.13333 11.4286 2.65979 11.4286 4.53333C11.4286 6.40688 9.88929 7.93333 8 7.93333C6.11071 7.93333 4.57143 6.40688 4.57143 4.53333C4.57143 2.65979 6.11071 1.13333 8 1.13333Z" fill="white"/>
</svg>
